<?xml version="1.0" encoding="utf-8"?>
<!-- Generator: Adobe Illustrator 24.3.0, SVG Export Plug-In . SVG Version: 6.00 Build 0)  -->
<svg version="1.1" xmlns="http://www.w3.org/2000/svg" xmlns:xlink="http://www.w3.org/1999/xlink" x="0px" y="0px"
	 viewBox="0 0 350 75" style="enable-background:new 0 0 350 75;" xml:space="preserve">
<style type="text/css">
	.st0{display:none;}
	.st1{fill:#FFFFFF;}
</style>
<g id="Background_xA0_Image_1_" class="st0">
</g>
<g id="Layer_1_xA0_Image_1_" class="st0">
</g>
<g id="CHRIS_PRENTICE">
</g>
<g id="PHOTOGRAPHER_1_">
	<path class="st1" d="M99.7,60.2c-0.5-0.4-1.1-0.8-1.8-1c-0.7-0.2-1.6-0.4-2.6-0.4h-4.9V74h2.8v-5.3h2.1c1,0,1.8-0.1,2.6-0.4
		c0.7-0.2,1.4-0.6,1.8-1c0.5-0.4,0.9-1,1.1-1.6s0.4-1.3,0.4-2c0-0.7-0.1-1.4-0.4-2C100.5,61.1,100.2,60.6,99.7,60.2z M98.1,64.8
		c-0.1,0.3-0.3,0.6-0.6,0.9c-0.3,0.2-0.6,0.4-1,0.6c-0.4,0.1-0.8,0.2-1.4,0.2h-2.1V61h2.1c0.5,0,1,0.1,1.4,0.2
		c0.4,0.1,0.7,0.3,1,0.5c0.3,0.2,0.4,0.5,0.6,0.8s0.2,0.7,0.2,1.1C98.3,64.1,98.2,64.5,98.1,64.8z M330.3,29.2V16.8h13.9v-1.7h-13.9
		v-12h16.8V1.3H328V31h19.1l0-1.8H330.3z M320.6,26c-0.1,0-0.2,0-0.2,0.1s-0.2,0.1-0.2,0.1c-0.6,0.5-1.3,1-1.9,1.4
		c-0.6,0.4-1.3,0.7-2.1,1c-0.8,0.3-1.6,0.5-2.5,0.6c-0.9,0.1-1.9,0.2-3,0.2c-1.8,0-3.5-0.3-5-0.9c-1.6-0.6-2.9-1.5-4-2.6
		c-1.1-1.1-2-2.5-2.7-4.2c-0.7-1.7-1-3.5-1-5.6c0-2.1,0.3-3.9,1-5.6c0.6-1.7,1.5-3.1,2.7-4.2s2.5-2,4.1-2.6c1.6-0.6,3.4-0.9,5.3-0.9
		c1.5,0,2.8,0.2,3.9,0.5c1.1,0.3,2,0.6,2.7,1c0.7,0.4,1.3,0.7,1.7,1c0.4,0.3,0.7,0.5,0.9,0.5c0.3,0,0.4-0.1,0.6-0.3l0.7-0.9
		c-1.4-1.1-2.9-2-4.6-2.7c-1.7-0.6-3.6-0.9-5.8-0.9c-2.3,0-4.4,0.4-6.3,1.1c-1.9,0.7-3.5,1.8-4.9,3.1c-1.4,1.3-2.4,2.9-3.2,4.8
		c-0.8,1.9-1.1,3.9-1.1,6.2c0,2.3,0.4,4.4,1.1,6.3s1.8,3.5,3.1,4.8c1.3,1.3,2.9,2.3,4.7,3.1c1.8,0.7,3.9,1.1,6.1,1.1
		c1.3,0,2.5-0.1,3.6-0.3c1.1-0.2,2.1-0.5,3-0.9c0.9-0.4,1.8-0.8,2.5-1.3c0.8-0.5,1.5-1.1,2.1-1.8l-0.9-0.9
		C320.9,26.1,320.7,26,320.6,26z M113.3,65.3h-7.1v-6.5h-2.8V74h2.8v-6.6h7.1V74h2.8V58.8h-2.8V65.3z M124.4,28.7
		c0.9-0.8,1.5-1.8,2-2.9s0.7-2.3,0.7-3.5c0-1.2-0.2-2.2-0.7-3.1s-1.1-1.5-1.8-2.1c-0.8-0.6-1.6-1-2.6-1.4c-1-0.4-1.9-0.7-2.9-1
		s-2-0.6-2.9-0.9c-1-0.3-1.8-0.7-2.6-1.2c-0.8-0.5-1.4-1-1.8-1.7c-0.5-0.7-0.7-1.5-0.7-2.5c0-0.8,0.2-1.5,0.5-2.2s0.8-1.3,1.4-1.8
		c0.6-0.5,1.3-1,2.2-1.3c0.9-0.3,1.9-0.5,3-0.5c1.2,0,2.1,0.1,2.9,0.4c0.8,0.3,1.4,0.6,2,0.9s0.9,0.6,1.2,0.9
		c0.3,0.3,0.6,0.4,0.8,0.4c0.3,0,0.5-0.1,0.6-0.4l0.5-1c-1.1-1-2.3-1.8-3.6-2.2c-1.3-0.5-2.8-0.7-4.4-0.7c-1.5,0-2.8,0.2-3.9,0.6
		c-1.1,0.4-2.1,1-2.9,1.7c-0.8,0.7-1.4,1.5-1.8,2.4c-0.4,0.9-0.6,1.9-0.6,2.9c0,1.3,0.2,2.3,0.7,3.2c0.5,0.8,1.1,1.6,1.8,2.1
		c0.8,0.6,1.6,1,2.6,1.4c1,0.4,1.9,0.7,2.9,1c1,0.3,2,0.6,2.9,0.9c1,0.3,1.8,0.7,2.6,1.1c0.8,0.5,1.4,1,1.8,1.7
		c0.5,0.7,0.7,1.5,0.7,2.6c0,1-0.2,1.9-0.5,2.7c-0.4,0.8-0.9,1.6-1.6,2.2s-1.5,1.1-2.5,1.5c-1,0.4-2.1,0.5-3.4,0.5
		c-0.9,0-1.7-0.1-2.5-0.3c-0.7-0.2-1.4-0.4-1.9-0.6c-0.6-0.2-1-0.5-1.5-0.8c-0.4-0.3-0.8-0.6-1.1-0.8c-0.3-0.2-0.6-0.5-0.8-0.6
		s-0.4-0.3-0.5-0.3c-0.2,0-0.4,0.1-0.6,0.3l-0.6,0.9c1.1,1.2,2.5,2.2,4,2.8c1.5,0.7,3.3,1,5.4,1c1.6,0,3.1-0.2,4.3-0.7
		C122.4,30.2,123.5,29.5,124.4,28.7z M133,62.4c-0.3-0.6-0.7-1.1-1.1-1.6c-0.5-0.5-1-0.9-1.5-1.2c-0.6-0.3-1.2-0.6-1.9-0.8
		c-0.7-0.2-1.4-0.3-2.2-0.3c-1.1,0-2.2,0.2-3.1,0.6c-0.9,0.4-1.8,0.9-2.4,1.6c-0.7,0.7-1.2,1.5-1.6,2.5c-0.4,0.9-0.6,2-0.6,3.1
		c0,1.1,0.2,2.1,0.6,3.1c0.4,0.9,0.9,1.8,1.6,2.5c0.7,0.7,1.5,1.2,2.4,1.6c0.9,0.4,2,0.6,3.1,0.6c1.2,0,2.2-0.2,3.2-0.6
		c0.9-0.4,1.8-0.9,2.4-1.6s1.2-1.5,1.6-2.5c0.4-0.9,0.6-2,0.6-3.1c0-0.7-0.1-1.4-0.2-2.1C133.5,63.6,133.3,63,133,62.4z M130.7,68.7
		c-0.2,0.7-0.5,1.2-1,1.7c-0.4,0.5-0.9,0.8-1.5,1.1c-0.6,0.2-1.3,0.4-2,0.4c-0.7,0-1.4-0.1-2-0.4c-0.6-0.2-1.1-0.6-1.5-1.1
		c-0.4-0.5-0.7-1-1-1.7c-0.2-0.7-0.3-1.4-0.3-2.2s0.1-1.6,0.3-2.2c0.2-0.7,0.5-1.2,1-1.7s0.9-0.8,1.5-1.1c0.6-0.2,1.3-0.4,2-0.4
		c0.7,0,1.4,0.1,2,0.4c0.6,0.2,1.1,0.6,1.5,1.1s0.7,1,1,1.7c0.2,0.7,0.3,1.4,0.3,2.2S131,68,130.7,68.7z M231.3,65.3h-7.1v-6.5h-2.8
		V74h2.8v-6.6h7.1V74h2.8V58.8h-2.8V65.3z M218.9,29.2h-16.8V16.8h14v-1.7h-14v-12h16.8V1.3h-19.1V31h19.1L218.9,29.2z M29.7,26
		c-0.1,0-0.1,0-0.2,0.1c-0.1,0-0.2,0.1-0.2,0.1c-0.6,0.5-1.3,1-1.9,1.4s-1.3,0.7-2.1,1c-0.8,0.3-1.6,0.5-2.5,0.6
		c-0.9,0.1-1.9,0.2-3,0.2c-1.8,0-3.5-0.3-5-0.9c-1.6-0.6-2.9-1.5-4-2.6c-1.1-1.1-2-2.5-2.7-4.2c-0.7-1.7-1-3.5-1-5.6
		c0-2.1,0.3-3.9,1-5.6c0.6-1.7,1.5-3.1,2.7-4.2s2.5-2,4.1-2.6c1.6-0.6,3.4-0.9,5.3-0.9c1.5,0,2.8,0.2,3.9,0.5c1.1,0.3,2,0.6,2.7,1
		c0.7,0.4,1.3,0.7,1.7,1c0.4,0.3,0.7,0.5,0.9,0.5c0.3,0,0.4-0.1,0.6-0.3l0.7-0.9c-1.4-1.1-2.9-2-4.6-2.7c-1.7-0.6-3.6-0.9-5.8-0.9
		c-2.3,0-4.4,0.4-6.3,1.1c-1.9,0.7-3.5,1.8-4.9,3.1C7.6,6.5,6.5,8.1,5.8,10c-0.8,1.9-1.1,3.9-1.1,6.2c0,2.3,0.4,4.4,1.1,6.3
		s1.8,3.5,3.1,4.8c1.3,1.3,2.9,2.3,4.7,3.1c1.8,0.7,3.9,1.1,6.1,1.1c1.3,0,2.5-0.1,3.6-0.3c1.1-0.2,2.1-0.5,3-0.9
		c0.9-0.4,1.8-0.8,2.5-1.3c0.8-0.5,1.5-1.1,2.1-1.8l-0.9-0.9C30,26.1,29.8,26,29.7,26z M91.1,31h2l-11-12.9c-0.3-0.3-0.6-0.6-1-0.8
		c1.4-0.2,2.7-0.5,3.8-0.9c1.1-0.4,2.1-1,2.9-1.7c0.8-0.7,1.4-1.5,1.8-2.5s0.6-2,0.6-3.1c0-2.6-0.9-4.5-2.7-5.8
		c-1.8-1.3-4.6-2-8.2-2h-8.1V31h2.3V17.6h4.2c0.3,0,0.6,0,0.8,0c0.2,0,0.4,0.1,0.6,0.1c0.2,0.1,0.3,0.2,0.4,0.3
		c0.1,0.1,0.3,0.2,0.4,0.4L90,30.5c0.1,0.2,0.3,0.4,0.5,0.4C90.6,31,90.8,31,91.1,31z M78.9,16h-5.5V3h5.8c2.8,0,5,0.5,6.5,1.5
		s2.2,2.6,2.2,4.7c0,1-0.2,2-0.6,2.8s-1,1.5-1.8,2.1c-0.8,0.6-1.7,1-2.8,1.4C81.6,15.8,80.3,16,78.9,16z M59.4,15.1H39.4V1.3h-2.3
		V31h2.3V16.8h19.9V31h2.3V1.3h-2.3V15.1z M100.7,1.3h-2.3V31h2.3V1.3z M257.2,67.9c-0.2-0.1-0.3-0.3-0.5-0.4c0.5-0.2,1-0.4,1.4-0.7
		c0.4-0.3,0.8-0.6,1.1-1c0.3-0.4,0.5-0.8,0.7-1.2s0.2-0.9,0.2-1.4c0-0.6-0.1-1.2-0.3-1.8c-0.2-0.5-0.6-1-1-1.4
		c-0.5-0.4-1.1-0.7-1.8-0.9c-0.7-0.2-1.6-0.3-2.7-0.3h-4.6V74h2.8v-5.9h1.2c0.3,0,0.5,0,0.6,0.1c0.1,0.1,0.3,0.2,0.4,0.4l3.2,4.9
		c0.2,0.4,0.6,0.6,1,0.6h2.6l-3.8-5.6C257.5,68.2,257.4,68,257.2,67.9z M255.6,65.8c-0.4,0.1-0.9,0.2-1.4,0.2h-1.8v-5h1.8
		c1,0,1.8,0.2,2.3,0.6c0.5,0.4,0.8,1,0.8,1.8c0,0.4-0.1,0.7-0.2,1.1c-0.1,0.3-0.3,0.6-0.6,0.8S256,65.7,255.6,65.8z M134.6,61.1h4.6
		V74h2.8V61.1h4.6v-2.3h-12V61.1z M180.7,18c0.1,0.1,0.3,0.2,0.4,0.4l10.2,12.1c0.2,0.2,0.3,0.4,0.5,0.4c0.2,0.1,0.4,0.1,0.6,0.1h2
		l-11-12.9c-0.3-0.3-0.6-0.6-1-0.8c1.4-0.2,2.7-0.5,3.8-0.9c1.1-0.4,2.1-1,2.9-1.7c0.8-0.7,1.4-1.5,1.8-2.5s0.6-2,0.6-3.1
		c0-2.6-0.9-4.5-2.7-5.8c-1.8-1.3-4.6-2-8.2-2h-8.1V31h2.3V17.6h4.2c0.3,0,0.6,0,0.8,0c0.2,0,0.4,0.1,0.6,0.1
		C180.4,17.8,180.6,17.9,180.7,18z M174.8,16V3h5.8c2.8,0,5,0.5,6.5,1.5s2.2,2.6,2.2,4.7c0,1-0.2,2-0.6,2.8c-0.4,0.8-1,1.5-1.8,2.1
		c-0.8,0.6-1.7,1-2.8,1.4c-1.1,0.3-2.4,0.5-3.8,0.5H174.8z M250.4,1.3h-2v24.9c0,0.4,0,0.8,0.1,1.2L227.9,1.7
		c-0.1-0.2-0.3-0.3-0.4-0.3c-0.1,0-0.3-0.1-0.5-0.1h-1.1V31h2V6c0-0.4,0-0.8-0.1-1.2l20.7,25.8c0.1,0.2,0.2,0.3,0.4,0.3
		c0.1,0.1,0.3,0.1,0.5,0.1h1.1V1.3z M217.7,60.2c-0.5-0.4-1.1-0.8-1.8-1c-0.7-0.2-1.6-0.4-2.6-0.4h-4.9V74h2.8v-5.3h2.1
		c1,0,1.8-0.1,2.6-0.4c0.7-0.2,1.4-0.6,1.8-1c0.5-0.4,0.9-1,1.1-1.6c0.2-0.6,0.4-1.3,0.4-2c0-0.7-0.1-1.4-0.4-2
		C218.6,61.1,218.2,60.6,217.7,60.2z M216.2,64.8c-0.1,0.3-0.3,0.6-0.6,0.9c-0.3,0.2-0.6,0.4-1,0.6c-0.4,0.1-0.8,0.2-1.4,0.2h-2.1
		V61h2.1c0.5,0,1,0.1,1.4,0.2c0.4,0.1,0.7,0.3,1,0.5c0.3,0.2,0.4,0.5,0.6,0.8s0.2,0.7,0.2,1.1C216.3,64.1,216.3,64.5,216.2,64.8z
		 M237.5,74h9.6v-2.3h-6.7v-4.3h5.3v-2.2h-5.3v-4.2h6.7v-2.2h-9.6V74z M197.9,58.8l-5.9,15l-3.7-5.5c-0.1-0.2-0.3-0.4-0.4-0.5
		c-0.2-0.1-0.3-0.3-0.5-0.4c0.5-0.2,1-0.4,1.4-0.7c0.4-0.3,0.8-0.6,1-1c0.3-0.4,0.5-0.8,0.7-1.2s0.2-0.9,0.2-1.4
		c0-0.6-0.1-1.2-0.3-1.8c-0.2-0.5-0.6-1-1-1.4s-1.1-0.7-1.8-0.9c-0.7-0.2-1.6-0.3-2.7-0.3h-4.6V74h2.8v-5.9h1.2c0.3,0,0.5,0,0.6,0.1
		c0.1,0.1,0.3,0.2,0.4,0.4l3.2,4.9c0.2,0.4,0.6,0.6,1,0.6h4.6c0.2,0,0.4-0.1,0.6-0.2s0.3-0.3,0.3-0.4l1.1-3.1h6.3l1.1,3.1
		c0.1,0.2,0.2,0.3,0.3,0.5s0.4,0.2,0.6,0.2h2.2l-6-15.2H197.9z M186.2,65.8c-0.4,0.1-0.9,0.2-1.4,0.2h-1.8v-5h1.8
		c1,0,1.8,0.2,2.3,0.6c0.5,0.4,0.8,1,0.8,1.8c0,0.4-0.1,0.7-0.2,1.1c-0.1,0.3-0.3,0.6-0.6,0.8C186.9,65.5,186.6,65.7,186.2,65.8z
		 M196.9,68.3l1.8-5c0.1-0.2,0.2-0.5,0.3-0.8s0.2-0.6,0.3-1c0.1,0.4,0.2,0.7,0.3,1c0.1,0.3,0.2,0.6,0.3,0.8l1.8,5H196.9z M285.9,31
		h2.3V1.3h-2.3V31z M161.5,62.4c-0.3-0.6-0.7-1.1-1.1-1.6c-0.5-0.5-1-0.9-1.5-1.2c-0.6-0.3-1.2-0.6-1.9-0.8
		c-0.7-0.2-1.4-0.3-2.2-0.3c-1.1,0-2.2,0.2-3.1,0.6c-0.9,0.4-1.8,0.9-2.4,1.6c-0.7,0.7-1.2,1.5-1.6,2.5c-0.4,0.9-0.6,2-0.6,3.1
		c0,1.1,0.2,2.1,0.6,3.1c0.4,0.9,0.9,1.8,1.6,2.5c0.7,0.7,1.5,1.2,2.4,1.6c0.9,0.4,2,0.6,3.1,0.6c1.2,0,2.2-0.2,3.2-0.6
		c0.9-0.4,1.8-0.9,2.4-1.6s1.2-1.5,1.6-2.5c0.4-0.9,0.6-2,0.6-3.1c0-0.7-0.1-1.4-0.2-2.1C162.1,63.6,161.9,63,161.5,62.4z
		 M159.3,68.7c-0.2,0.7-0.5,1.2-1,1.7c-0.4,0.5-0.9,0.8-1.5,1.1c-0.6,0.2-1.3,0.4-2,0.4c-0.7,0-1.4-0.1-2-0.4
		c-0.6-0.2-1.1-0.6-1.5-1.1c-0.4-0.5-0.7-1-1-1.7c-0.2-0.7-0.3-1.4-0.3-2.2s0.1-1.6,0.3-2.2c0.2-0.7,0.5-1.2,1-1.7s0.9-0.8,1.5-1.1
		c0.6-0.2,1.3-0.4,2-0.4c0.7,0,1.4,0.1,2,0.4c0.6,0.2,1.1,0.6,1.5,1.1c0.4,0.5,0.7,1,1,1.7c0.2,0.7,0.3,1.4,0.3,2.2
		S159.5,68,159.3,68.7z M255.8,3.1H267V31h2.3V3.1h11.2V1.3h-24.8V3.1z M166,10.1c0-2.8-0.9-5-2.8-6.5c-1.9-1.5-4.7-2.3-8.4-2.3
		h-8.2V31h2.3V19h5.9c1.7,0,3.3-0.2,4.7-0.7s2.6-1.1,3.6-1.8s1.7-1.7,2.2-2.8C165.7,12.6,166,11.4,166,10.1z M163,13
		c-0.4,0.9-1,1.6-1.8,2.3c-0.8,0.6-1.7,1.1-2.8,1.5c-1.1,0.4-2.4,0.5-3.8,0.5h-5.9V3h5.9c3,0,5.2,0.6,6.7,1.8c1.5,1.2,2.2,3,2.2,5.3
		C163.6,11.1,163.4,12.1,163,13z M172.5,68c0,0.1,0.1,0.3,0.2,0.4s0.2,0.2,0.4,0.2h1.9v2.8c-0.4,0.2-0.9,0.4-1.3,0.5
		c-0.4,0.1-0.9,0.2-1.5,0.2c-0.8,0-1.5-0.1-2.1-0.4c-0.6-0.2-1.2-0.6-1.6-1.1c-0.5-0.5-0.8-1-1.1-1.7s-0.4-1.5-0.4-2.3
		c0-0.8,0.1-1.5,0.3-2.2c0.2-0.7,0.6-1.2,1-1.7c0.4-0.5,0.9-0.8,1.5-1.1s1.3-0.4,2-0.4c0.5,0,0.9,0,1.2,0.1c0.4,0.1,0.7,0.1,1,0.2
		s0.5,0.2,0.8,0.3c0.2,0.1,0.5,0.3,0.7,0.4c0.2,0.1,0.5,0.2,0.7,0.2c0.2,0,0.4-0.2,0.5-0.4l0.8-1.3c-0.3-0.3-0.7-0.6-1-0.8
		s-0.8-0.5-1.3-0.6c-0.5-0.2-1-0.3-1.5-0.4c-0.5-0.1-1.1-0.1-1.7-0.1c-1.2,0-2.3,0.2-3.3,0.6s-1.8,0.9-2.5,1.6
		c-0.7,0.7-1.2,1.5-1.6,2.5c-0.4,1-0.6,2-0.6,3.1c0,1.1,0.2,2.2,0.6,3.1c0.4,1,0.9,1.8,1.6,2.5c0.7,0.7,1.6,1.2,2.6,1.6
		s2.1,0.6,3.4,0.6c1,0,1.9-0.1,2.8-0.4c0.9-0.3,1.7-0.7,2.5-1.2v-6.1h-5V68z"/>
</g>
<g id="PHOTOGRAPHER" class="st0">
	
		<text transform="matrix(1 0 0 1 75.436 551.9922)" style="display:inline;fill:#FFFFFF; font-family:'Futura-CondensedExtraBold-Th'; font-size:31.5px;">PHOTOGRAPHER</text>
</g>
<g id="Group_1_1_" class="st0">
	<g id="People_and_Places">
		
			<text transform="matrix(1.5 0 0 1 -235.2015 156)" style="display:inline;fill:#FFFFFF; font-family:'Futura-CondensedLight-Normal'; font-size:17px;">People and Places</text>
	</g>
	<g id="Group_2_1_">
	</g>
	<g id="Street">
		
			<text transform="matrix(1.5 0 0 1 -32.7891 156)" style="display:inline;fill:#FFFFFF; font-family:'Futura-CondensedLight-Normal'; font-size:17px;">Street</text>
	</g>
	<g id="Travel">
		
			<text transform="matrix(1.5 0 0 1 70.6317 156)" style="display:inline;fill:#FFFFFF; font-family:'Futura-CondensedLight-Normal'; font-size:17px;">Travel</text>
	</g>
	<g id="Commercial">
		
			<text transform="matrix(1.5 0 0 1 173.5563 156)" style="display:inline;fill:#FFFFFF; font-family:'Futura-CondensedLight-Normal'; font-size:17px;">Commercial</text>
	</g>
	<g id="Weddings">
		
			<text transform="matrix(1.5 0 0 1 318.4922 156)" style="display:inline;fill:#FFFFFF; font-family:'Futura-CondensedLight-Normal'; font-size:17px;">Weddings</text>
	</g>
	<g id="Contact">
		
			<text transform="matrix(1.5 0 0 1 442.8942 156)" style="display:inline;fill:#FFFFFF; font-family:'Futura-CondensedLight-Normal'; font-size:17px;">Contact</text>
	</g>
</g>
</svg>
