<?xml version="1.0" encoding="utf-8"?>
<!-- Generator: Adobe Illustrator 24.3.0, SVG Export Plug-In . SVG Version: 6.00 Build 0)  -->
<svg version="1.1" id="Layer_1" xmlns="http://www.w3.org/2000/svg" xmlns:xlink="http://www.w3.org/1999/xlink" x="0px" y="0px"
	 viewBox="0 0 135.3 98.9" style="enable-background:new 0 0 135.3 98.9;" xml:space="preserve">
<style type="text/css">
	.st0{fill:#FFFFFF;}
	.st1{display:none;}
	.st2{display:inline;}
	.st3{display:inline;clip-path:url(#SVGID_2_);fill:#FFFFFF;}
	.st4{fill:#67C5F0;}
</style>
<g>
	<g>
		<path class="st0" d="M38.3,68.4"/>
		<g>
			<g>
				<path class="st0" d="M44.8,2c-4,0-4,29.1-4,29.1s-1.4-0.7-3.5-0.7c-2.1,0-3.5,0.7-3.5,0.7s0-29.1-4-29.1c0,0-7.2,45.4-2.9,53.6
					c2.2,4.1,7.1,13.7,10.4,13.7s8.2-10,10.4-13.7C52.4,47.7,44.8,2,44.8,2z"/>
			</g>
		</g>
		<g>
			<path class="st0" d="M20.9,59.7c0,5.7-3,8.6-9.1,8.6c-6.1,0-9.1-2.9-9.1-8.6v-6.3h6.8v5.2c0,1.9,0.7,2.8,2,2.8s2-0.9,2-2.8V36.7
				h7.4V59.7z M20.9,33.9h-7.4v-7.5h7.4V33.9z"/>
			<path class="st0" d="M71.8,57.8c0,3.6-0.7,6.2-2.1,7.8c-1.5,1.7-4,2.6-7.6,2.6c-3.5,0-6-0.9-7.5-2.6c-1.4-1.6-2.1-4.2-2.1-7.8
				V36.7c0-3.6,0.7-6.2,2.2-7.8c1.5-1.7,3.9-2.5,7.4-2.5c3.5,0,6.1,0.9,7.6,2.6c1.4,1.6,2.1,4.2,2.1,7.8v3.6h-7.6v-4
				c0-1.3-0.7-2-2-2c-1.3,0-2,1-2,3.1V57c0,2.1,0.7,3.1,2,3.1c1.4,0,2-0.7,2-2V47.4h7.6V57.8z"/>
			<path class="st0" d="M92.3,67.3h-7.4V56.8c0-1.6-0.6-2.5-1.7-2.5c-1.2,0-1.8,0.8-1.8,2.5v10.5h-7.1V26.4h7.1v22.2l5.7-22.2h7.4
				l-6,21.9c2.6,1.3,3.9,3.9,3.9,7.9V67.3z"/>
			<path class="st0" d="M114.2,67.3h-7.4v-2.2c-1,2-2.6,3-4.9,3c-4.1,0-6.1-3-6.1-9.1v-1.8c0-3.7,0.9-6.4,2.8-7.9
				c0.5-0.4,2.3-1.2,5.3-2.3c1.9-0.7,2.9-1.9,2.9-3.6v-7.6c0-1.6-0.6-2.5-1.8-2.5c-1.2,0-1.8,0.8-1.8,2.5v9.8h-6.8V35.2
				c0-5.9,3-8.8,9-8.8c5.9,0,8.8,2.9,8.8,8.8V67.3z M106.8,59.2v-7.1c-1.6,1.3-2.5,2.1-2.6,2.2c-0.6,0.8-0.9,1.9-0.9,3.5v0.8
				c0,1.8,0.7,2.6,2.2,2.6C106.3,61.2,106.8,60.6,106.8,59.2z"/>
			<path class="st0" d="M132.4,67.3h-15.7V26.4h7.6v32.9h8.1V67.3z"/>
		</g>
	</g>
	<g id="Designs">
		<g>
			<path class="st0" d="M43.6,79.8c-1.2,0-1.8,0.4-1.8,1.3v4.9h3.7v-4.9C45.5,80.3,44.9,79.8,43.6,79.8z"/>
			<path class="st0" d="M23.2,80.3h-1.7v11h1.7c1.4,0,2.1-0.6,2.1-1.7V82C25.3,80.9,24.6,80.3,23.2,80.3z"/>
			<path class="st0" d="M0,71.9v27.2h135.1V71.9H0z M32.5,90.3c0,1.6-0.7,2.8-2,3.5c-1.4,0.7-3.9,1.1-7.3,1.1h-8.9v-18h8.9
				c3.4,0,5.9,0.4,7.3,1.1c1.3,0.7,2,1.8,2,3.5V90.3z M51.9,88.7H41.8v2.2c0,0.8,0.6,1.3,1.8,1.3c1.2,0,1.8-0.4,1.8-1.3v-0.8h6.4
				v1.2c0,2.5-2.9,3.8-8.6,3.8c-5.7,0-8.6-1.3-8.6-3.8v-9.9c0-1.6,0.6-2.7,1.7-3.4c1.3-0.8,3.6-1.2,6.8-1.2c3.2,0,5.5,0.4,6.8,1.2
				c1.2,0.7,1.7,1.9,1.7,3.4V88.7z M71.1,93.8c-1.4,0.9-3.9,1.4-7.6,1.4c-3.5,0-5.9-0.4-7.3-1.1c-1.3-0.7-1.9-1.9-1.9-3.5v-0.9h7.2
				v0.4c0,1.1,0.7,1.6,2.1,1.6c1.4,0,2.1-0.5,2.1-1.6c0-1.1-1-1.9-2.9-2.4l-5.4-1.5c-2-0.9-2.9-2.2-2.9-4.1c0-1.7,0.6-3,1.9-3.8
				c1.5-1,3.9-1.4,7.4-1.4c3.3,0,5.6,0.4,7.1,1.2c1.3,0.7,2,1.9,2,3.5V83h-7v-1.1c0-1.1-0.7-1.6-2.1-1.6c-1.4,0-2.1,0.6-2.1,1.9
				c0,0.9,1,1.6,2.9,2.1c3.1,0.8,4.9,1.3,5.4,1.6c2,0.9,2.9,2.2,2.9,4C72.7,91.7,72.2,93,71.1,93.8z M82.1,94.8h-7V81.3h7V94.8z
				 M82.1,80.1h-7v-3.3h7V80.1z M101.6,91.2c0,1.5-0.6,2.6-1.8,3.3c-1.4,0.8-3.6,1.1-6.8,1.1c-3.2,0-5.4-0.3-6.6-0.9
				c-1.2-0.6-1.8-1.6-1.8-3.1h6.7c0,0.8,0.6,1.1,1.7,1.1c1.1,0,1.7-0.4,1.7-1.2v-0.9c-0.7,0.2-1.5,0.3-2.5,0.3
				c-5.2,0-7.8-1.3-7.8-3.9v-6.6c0-2.6,2.2-3.9,7.8-3.9c0.9,0,1.8,0.2,2.5,0.5v-0.5h7V91.2z M121,94.8h-7V80.9
				c0-0.7-0.5-1.1-1.6-1.1c-1.1,0-1.7,0.4-1.7,1.1v13.9h-6.7v-18h6.7v0.5c0.7-0.3,1.6-0.5,2.5-0.5c5.2,0,7.8,1.3,7.8,3.9V94.8z"/>
			<path class="st0" d="M93,79.8c-1.1,0-1.7,0.4-1.7,1.1V87c0,0.7,0.6,1.1,1.7,1.1c1.1,0,1.7-0.4,1.7-1.1v-6.1
				C94.7,80.2,94.1,79.8,93,79.8z"/>
		</g>
		<g class="st1">
			<defs>
				<path id="SVGID_1_" d="M113.1,76.8c-0.9,0-1.8,0.2-2.5,0.5v-0.5h-6.7v18h6.7V80.9c0-0.7,0.6-1.1,1.7-1.1c1.1,0,1.6,0.4,1.6,1.1
					v13.9h7V80.7C121,78.1,118.4,76.8,113.1,76.8z M30.5,77.9c-1.4-0.7-3.9-1.1-7.3-1.1h-8.9v18h8.9c3.4,0,5.9-0.4,7.3-1.1
					c1.3-0.7,2-1.8,2-3.5v-8.9C32.5,79.7,31.8,78.6,30.5,77.9z M25.3,89.6c0,1.1-0.7,1.7-2.1,1.7h-1.7v-11h1.7
					c1.4,0,2.1,0.6,2.1,1.7V89.6z M128.7,91.4c-0.2-0.1-0.9-0.3-2.2-0.6c-0.8-0.2-1.2-0.5-1.2-0.8c0-0.5,0.3-0.8,0.8-0.8
					c0.6,0,0.8,0.2,0.8,0.6v0.4h2.8v-0.6c0-0.6-0.3-1.1-0.8-1.4c-0.6-0.3-1.5-0.5-2.8-0.5c-1.4,0-2.4,0.2-3,0.6
					c-0.5,0.3-0.7,0.8-0.7,1.5c0,0.7,0.4,1.3,1.2,1.6l2.2,0.6c0.8,0.2,1.2,0.6,1.2,1c0,0.4-0.3,0.6-0.8,0.6c-0.6,0-0.8-0.2-0.8-0.7
					V93h-2.9v0.3c0,0.7,0.3,1.1,0.8,1.4c0.6,0.3,1.5,0.5,2.9,0.5c1.5,0,2.5-0.2,3.1-0.6c0.5-0.3,0.7-0.8,0.7-1.6
					C129.8,92.3,129.5,91.8,128.7,91.4z M50.2,78.1c-1.3-0.8-3.6-1.2-6.8-1.2c-3.2,0-5.5,0.4-6.8,1.2c-1.2,0.7-1.7,1.9-1.7,3.4v9.9
					c0,2.5,2.9,3.8,8.6,3.8c5.7,0,8.6-1.3,8.6-3.8v-1.2h-6.4v0.8c0,0.8-0.6,1.3-1.8,1.3c-1.2,0-1.8-0.4-1.8-1.3v-2.2h10.1v-7.2
					C51.9,80,51.3,78.8,50.2,78.1z M45.5,86.1h-3.7v-4.9c0-0.9,0.6-1.3,1.8-1.3c1.2,0,1.8,0.4,1.8,1.3V86.1z M94.7,77.3
					c-0.8-0.3-1.6-0.5-2.5-0.5c-5.2,0-7.8,1.3-7.8,3.9v6.6c0,2.6,2.6,3.9,7.8,3.9c1,0,1.9-0.1,2.5-0.3v0.9c0,0.8-0.6,1.2-1.7,1.2
					c-1.1,0-1.7-0.4-1.7-1.1h-6.7c0,1.5,0.6,2.5,1.8,3.1c1.2,0.6,3.4,0.9,6.6,0.9c3.2,0,5.4-0.4,6.8-1.1c1.2-0.7,1.8-1.8,1.8-3.3
					V76.8h-7V77.3z M94.7,87c0,0.7-0.6,1.1-1.7,1.1c-1.1,0-1.7-0.4-1.7-1.1v-6.1c0-0.7,0.6-1.1,1.7-1.1c1.1,0,1.7,0.4,1.7,1.1V87z
					 M69.8,85.9c-0.5-0.2-2.3-0.8-5.4-1.6c-2-0.5-2.9-1.2-2.9-2.1c0-1.2,0.7-1.9,2.1-1.9c1.4,0,2.1,0.5,2.1,1.6V83h7v-1.5
					c0-1.6-0.7-2.7-2-3.5c-1.4-0.8-3.8-1.2-7.1-1.2c-3.5,0-5.9,0.5-7.4,1.4c-1.2,0.8-1.9,2.1-1.9,3.8c0,1.8,1,3.2,2.9,4.1l5.4,1.5
					c1.9,0.6,2.9,1.4,2.9,2.4c0,1.1-0.7,1.6-2.1,1.6c-1.4,0-2.1-0.5-2.1-1.6v-0.4h-7.2v0.9c0,1.6,0.6,2.8,1.9,3.5
					c1.4,0.8,3.8,1.1,7.3,1.1c3.7,0,6.2-0.5,7.6-1.4c1.1-0.8,1.7-2.1,1.7-3.9C72.7,88.1,71.8,86.8,69.8,85.9z M75.1,80.1h7v-3.3h-7
					V80.1z M75.1,94.8h7V81.3h-7V94.8z"/>
			</defs>
			<use xlink:href="#SVGID_1_"  style="display:inline;overflow:visible;fill:#FFFFFF;"/>
			<clipPath id="SVGID_2_" class="st2">
				<use xlink:href="#SVGID_1_"  style="overflow:visible;"/>
			</clipPath>
			<path class="st3" d="M-20.1,104c0,0,38.2-28.3,184.6-27.2c146.4,1.1-241.9-43-241.9-43L-20.1,104z"/>
		</g>
	</g>
</g>
<path class="st4" d="M105,79.5"/>
</svg>
